PathFileType	4	(X/Y/Z)	/Users/itak/Documents/Research/Walk-IL/dataset/trc/00087_00006.trc
DataRate	CameraRate	NumFrames	NumMarkers	Units	OrigDataRate	OrigDataStartFrame	OrigNumFrames
100.000000	100.000000	4	53	mm	100.000000	437	500
Frame#	Time	LPSI			L3			STRN			T10			C7			CLAV			RBAK			LBAK			LSHO			LUPA			LAEL			LAOL			LWTS			LWPS			LFRA			LIFD			LHPS			LHTS			RSHO			RUPA			RAEL			RAOL			RWTS			RWPS			RFRA			RIFD			RHTS			RHPS			RBHD			LFHD			RFHD			LBHD			LHIP			RHIP			RASI			LASI			LKNE			LTHI			LANK			LTIP			LTOE			LMT1			LMT5			LHEE			RKNE			RTHI			RANK			RTIP			RTOE			RMT1			RMT5			RHEE			RPSI			
		X1	Y1	Z1	X2	Y2	Z2	X3	Y3	Z3	X4	Y4	Z4	X5	Y5	Z5	X6	Y6	Z6	X7	Y7	Z7	X8	Y8	Z8	X9	Y9	Z9	X10	Y10	Z10	X11	Y11	Z11	X12	Y12	Z12	X13	Y13	Z13	X14	Y14	Z14	X15	Y15	Z15	X16	Y16	Z16	X17	Y17	Z17	X18	Y18	Z18	X19	Y19	Z19	X20	Y20	Z20	X21	Y21	Z21	X22	Y22	Z22	X23	Y23	Z23	X24	Y24	Z24	X25	Y25	Z25	X26	Y26	Z26	X27	Y27	Z27	X28	Y28	Z28	X29	Y29	Z29	X30	Y30	Z30	X31	Y31	Z31	X32	Y32	Z32	X33	Y33	Z33	X34	Y34	Z34	X35	Y35	Z35	X36	Y36	Z36	X37	Y37	Z37	X38	Y38	Z38	X39	Y39	Z39	X40	Y40	Z40	X41	Y41	Z41	X42	Y42	Z42	X43	Y43	Z43	X44	Y44	Z44	X45	Y45	Z45	X46	Y46	Z46	X47	Y47	Z47	X48	Y48	Z48	X49	Y49	Z49	X50	Y50	Z50	X51	Y51	Z51	X52	Y52	Z52	X53	Y53	Z53	

438	4.37	434.2969360351562	1010.145751953125	-430.8913269042969	515.503173828125	1075.431884765625	-432.5324401855469	538.3455810546875	1281.052612304688	-679.1055908203125	507.5115661621094	1209.892700195312	-412.1344299316406	509.03857421875	1477.708374023438	-467.494140625	532.2877197265625	1394.753173828125	-646.6296997070312	578.3050537109375	1337.667358398438	-399.6670532226562	407.9011535644531	1440.02294921875	-456.8317260742188	346.4764404296875	1446.137573242188	-567.2584838867188	264.7924194335938	1321.513916015625	-556.1978759765625	238.5807342529297	1108.590698242188	-569.2789306640625	322.8021240234375	1092.848022460938	-500.3385009765625	298.7715759277344	865.9685668945312	-653.7816162109375	236.3641052246094	857.34716796875	-597.4046630859375	227.6729736328125	999.2562255859375	-588.1559448242188	314.4790954589844	679.7471923828125	-658.7318725585938	238.3265228271484	776.430419921875	-627.6575927734375	293.0794982910156	782.1447143554688	-673.9578247070312	690.1449584960938	1444.916381835938	-510.9034729003906	752.20947265625	1378.9794921875	-493.2612915039062	811.7470703125	1122.90478515625	-463.2397155761719	724.0667114257812	1090.271362304688	-495.3771667480469	821.8966674804688	882.4126586914062	-629.4739990234375	863.5186767578125	864.6439819335938	-555.1148071289062	831.8521728515625	1043.758544921875	-479.9460144042969	824.08251953125	698.0995483398438	-654.8273315429688	835.8103637695312	786.085205078125	-664.4306640625	881.993896484375	782.7332763671875	-602.0294799804688	599.247802734375	1644.946044921875	-501.7778625488281	467.937255859375	1701.421142578125	-672.4524536132812	594.2849731445312	1696.828979492188	-665.5442504882812	462.2963256835938	1656.4609375	-499.4452514648438	346.7076416015625	955.885986328125	-543.614990234375	689.3377685546875	950.9133911132812	-495.3219909667969	677.3157348632812	973.8037719726562	-619.2023315429688	410.3292846679688	970.3717651367188	-649.74267578125	386.7247924804688	500.2770385742188	-695.9188842773438	352.8474426269531	640.8702392578125	-645.3070678710938	339.953857421875	83.15556335449219	-451.1541748046875	349.6576538085938	282.8196716308594	-559.0137939453125	342.5715026855469	54.97441864013672	-647.9561767578125	395.6009826660156	51.98408508300781	-601.9303588867188	299.1000366210938	59.24138259887695	-547.4676513671875	417.2162170410156	90.204833984375	-401.2881164550781	663.6596069335938	513.7979125976562	-617.5060424804688	696.5818481445312	783.0833740234375	-594.5136108398438	635.8976440429688	34.36258316040039	-537.4088745117188	663.4880981445312	387.0924682617188	-603.260498046875	621.0300903320312	34.47701263427734	-757.8320922851562	576.8860473632812	39.32621765136719	-701.2802734375	664.4719848632812	40.17370223999023	-657.0592041015625	573.714599609375	37.65190887451172	-498.5146179199219	609.1570434570312	1021.8564453125	-429.35595703125	
439	4.38	435.9781494140625	1010.65283203125	-432.8725891113281	517.3216552734375	1075.690673828125	-434.9383544921875	538.80810546875	1281.207153320312	-681.8720703125	509.6192626953125	1210.246215820312	-414.5928039550781	510.8073120117188	1478.022338867188	-470.2018432617188	532.937255859375	1394.969360351562	-649.459716796875	580.621337890625	1338.016845703125	-402.5671691894531	409.7551879882812	1440.318725585938	-458.8435668945312	347.6221923828125	1446.286376953125	-568.8923950195312	266.0543823242188	1321.633178710938	-557.2991943359375	239.8865051269531	1108.704956054688	-570.11865234375	324.6289367675781	1093.008178710938	-501.8245544433594	299.7883605957031	866.3384399414062	-655.5040283203125	237.8519592285156	857.4736328125	-598.6592407226562	228.9766387939453	999.3428344726562	-589.0702514648438	315.8848571777344	680.2037353515625	-661.0009155273438	239.7264099121094	776.6629028320312	-629.1041870117188	294.1289672851562	782.5707397460938	-675.8255004882812	691.664794921875	1445.214965820312	-514.7623291015625	753.830810546875	1379.21240234375	-497.5303039550781	813.3617553710938	1123.033569335938	-468.0665588378906	725.37841796875	1090.50390625	-499.5692749023438	822.0151977539062	882.6041259765625	-634.50048828125	864.2103271484375	864.7808227539062	-560.4285278320312	833.2676391601562	1043.870727539062	-484.9733581542969	823.8326416015625	698.22021484375	-659.8896484375	835.5949096679688	786.2127685546875	-669.5511474609375	882.2581787109375	782.8576049804688	-607.4898681640625	600.466064453125	1645.204956054688	-504.8851928710938	468.6612854003906	1701.623168945312	-675.1915283203125	595.0458374023438	1697.015502929688	-668.6607055664062	463.5260009765625	1656.761840820312	-502.1460571289062	347.5311584472656	957.3404541015625	-544.7718505859375	690.6940307617188	950.9396362304688	-498.5798645019531	677.9765014648438	973.6954345703125	-622.4383544921875	410.8091735839844	970.7943725585938	-651.6796264648438	386.7731628417969	500.9726867675781	-697.06396484375	353.4487915039062	641.2469482421875	-646.1783447265625	341.784423828125	77.88124847412109	-464.1220092773438	350.6994323730469	280.3732299804688	-566.138916015625	343.7285461425781	56.11342239379883	-661.83154296875	396.9066772460938	51.60470962524414	-616.0877685546875	300.6407165527344	57.21932601928711	-561.0501098632812	419.1813354492188	83.31837463378906	-414.303955078125	663.9129028320312	513.5032958984375	-618.99267578125	697.1145629882812	782.935546875	-597.2728881835938	635.8412475585938	34.38544082641602	-537.4190673828125	663.70361328125	386.9865112304688	-604.2724609375	620.9431762695312	34.46712493896484	-757.8650512695312	576.83251953125	39.29957580566406	-701.2918090820312	664.3916015625	40.1861457824707	-657.06884765625	573.7420654296875	37.80588531494141	-498.4249267578125	610.8975219726562	1022.036804199219	-432.271728515625	
440	4.39	437.5803833007812	1011.156311035156	-434.8190002441406	519.05908203125	1075.945434570312	-437.2951965332031	539.2026977539062	1281.361083984375	-684.58203125	511.6048278808594	1210.578002929688	-417.0229797363281	512.4716796875	1478.324951171875	-472.8559875488281	533.51220703125	1395.173461914062	-652.2288208007812	582.8263549804688	1338.345458984375	-405.3965148925781	411.4925231933594	1440.605224609375	-460.8332214355469	348.6910095214844	1446.440307617188	-570.5176391601562	267.2525634765625	1321.7431640625	-558.4277954101562	241.1665191650391	1108.810180664062	-571.024658203125	326.3923950195312	1093.157836914062	-503.3695983886719	300.81396484375	866.7110595703125	-657.307373046875	239.3290557861328	857.5912475585938	-600.01806640625	230.2717437744141	999.4268188476562	-590.0721435546875	317.3037414550781	680.6634521484375	-663.3540649414062	241.1521759033203	776.9013671875	-630.65478515625	295.1881713867188	782.9957275390625	-677.7819213867188	693.0737915039062	1445.489013671875	-518.5216674804688	755.3358764648438	1379.422241210938	-501.6979675292969	814.8018188476562	1123.13037109375	-472.74853515625	726.5223388671875	1090.7119140625	-503.6407470703125	821.9606323242188	882.7638549804688	-639.3633422851562	864.6846313476562	864.8720703125	-565.57666015625	834.4971313476562	1043.949829101562	-489.8395080566406	823.277099609375	698.1917724609375	-664.74267578125	835.174072265625	786.3270874023438	-674.49169921875	882.2833862304688	782.91796875	-612.7677612304688	601.6171264648438	1645.458618164062	-507.9285888671875	469.3223876953125	1701.818115234375	-677.8677978515625	595.7393798828125	1697.1943359375	-671.6971435546875	464.6870422363281	1657.051147460938	-504.7880859375	348.2665100097656	958.6409912109375	-545.8878173828125	691.9592895507812	950.9866333007812	-501.8172302246094	678.550048828125	973.5955200195312	-625.6302490234375	411.1998291015625	971.2036743164062	-653.575927734375	386.8726501464844	501.6554565429688	-698.1066284179688	353.9559020996094	641.591796875	-646.9613647460938	343.4178161621094	73.03488922119141	-476.9960632324219	351.6407470703125	278.1271362304688	-573.2251586914062	344.7430114746094	57.40526580810547	-675.39013671875	398.0437622070312	51.44709014892578	-629.9512329101562	302.0245361328125	55.50202560424805	-574.4183959960938	420.9429931640625	76.878173828125	-427.2594299316406	664.070556640625	513.2144775390625	-620.430419921875	697.5633544921875	782.8079833984375	-600.0088500976562	635.7943725585938	34.42312240600586	-537.43603515625	663.8790283203125	386.9082336425781	-605.2643432617188	620.8688354492188	34.45775604248047	-757.895751953125	576.7836303710938	39.27717208862305	-701.307373046875	664.3081665039062	40.19064331054688	-657.09130859375	573.7506713867188	37.92118072509766	-498.3561096191406	612.5538940429688	1022.243347167969	-435.154052734375	
441	4.4	439.10546875	1011.652893066406	-436.7344665527344	520.7109985351562	1076.191528320312	-439.6132507324219	539.5316162109375	1281.511962890625	-687.237548828125	513.4708251953125	1210.883544921875	-419.4223022460938	514.0267333984375	1478.610107421875	-475.4581909179688	534.0154418945312	1395.36279296875	-654.938232421875	584.9017333984375	1338.650268554688	-408.1681518554688	413.1044311523438	1440.87890625	-462.8072204589844	349.68310546875	1446.600219726562	-572.1409912109375	268.3846740722656	1321.844482421875	-559.5879516601562	242.4091644287109	1108.906372070312	-571.9992065429688	328.0868225097656	1093.301025390625	-504.9657592773438	301.8493347167969	867.088134765625	-659.1866455078125	240.7922210693359	857.7037353515625	-601.4793701171875	231.5483856201172	999.509765625	-591.161865234375	318.7288208007812	681.1298828125	-665.7987670898438	242.5994262695312	777.1419677734375	-632.31201171875	296.2580871582031	783.4254150390625	-679.8265380859375	694.368896484375	1445.733642578125	-522.1767578125	756.7232055664062	1379.608032226562	-505.7569885253906	816.0696411132812	1123.192504882812	-477.2765808105469	727.498046875	1090.892822265625	-507.582275390625	821.737060546875	882.8900756835938	-644.0531005859375	864.9461059570312	864.9136962890625	-570.559326171875	835.5415649414062	1043.993530273438	-494.5370483398438	822.4596557617188	698.0425415039062	-669.41259765625	834.5422973632812	786.418212890625	-679.2547607421875	882.0786743164062	782.9168090820312	-617.8674926757812	602.6995849609375	1645.703857421875	-510.9041442871094	469.9216613769531	1702.004760742188	-680.4802856445312	596.3621826171875	1697.360229492188	-674.6492309570312	465.7743225097656	1657.321533203125	-507.37158203125	348.9738464355469	959.7459716796875	-547.0292358398438	693.1255493164062	951.0479736328125	-505.0241088867188	679.0347290039062	973.5068969726562	-628.77490234375	411.4943542480469	971.5869140625	-655.4288940429688	387.0371704101562	502.3231506347656	-699.0816650390625	354.32275390625	641.9091796875	-647.6835327148438	344.8634033203125	68.64257049560547	-489.6943359375	352.4686584472656	276.1101684570312	-580.2472534179688	345.6093444824219	58.8281135559082	-688.5676879882812	399.0128784179688	51.48699951171875	-643.4561157226562	303.2413940429688	54.10293579101562	-587.4955444335938	422.5099487304688	70.91900634765625	-440.056884765625	664.1363525390625	512.9425659179688	-621.8090209960938	697.9345703125	782.6907348632812	-602.7064819335938	635.7647705078125	34.48567962646484	-537.4647216796875	663.9998168945312	386.8311767578125	-606.2279052734375	620.8078002929688	34.44731903076172	-757.9241333007812	576.7377319335938	39.25896072387695	-701.3277587890625	664.224365234375	40.18999862670898	-657.123291015625	573.7379150390625	37.99135971069336	-498.3111877441406	614.12890625	1022.48583984375	-438.0046997070312	
